<svg width="20" height="20" viewBox="0 0 20 20" fill="none" xmlns="http://www.w3.org/2000/svg">
<path d="M9.08333 14.5833H10.9167V10.9167H14.5833V9.08333H10.9167V5.41666H9.08333V9.08333H5.41666V10.9167H9.08333V14.5833ZM10 19.1667C8.73194 19.1667 7.54027 18.926 6.42499 18.4448C5.30972 17.9635 4.33958 17.3104 3.51458 16.4854C2.68958 15.6604 2.03645 14.6903 1.5552 13.575C1.07395 12.4597 0.833328 11.2681 0.833328 10C0.833328 8.73194 1.07395 7.54027 1.5552 6.42499C2.03645 5.30972 2.68958 4.33958 3.51458 3.51458C4.33958 2.68958 5.30972 2.03645 6.42499 1.5552C7.54027 1.07395 8.73194 0.833328 10 0.833328C11.2681 0.833328 12.4597 1.07395 13.575 1.5552C14.6903 2.03645 15.6604 2.68958 16.4854 3.51458C17.3104 4.33958 17.9635 5.30972 18.4448 6.42499C18.926 7.54027 19.1667 8.73194 19.1667 10C19.1667 11.2681 18.926 12.4597 18.4448 13.575C17.9635 14.6903 17.3104 15.6604 16.4854 16.4854C15.6604 17.3104 14.6903 17.9635 13.575 18.4448C12.4597 18.926 11.2681 19.1667 10 19.1667ZM10 17.3333C12.0472 17.3333 13.7812 16.6229 15.2021 15.2021C16.6229 13.7812 17.3333 12.0472 17.3333 10C17.3333 7.95277 16.6229 6.21875 15.2021 4.79791C13.7812 3.37708 12.0472 2.66666 10 2.66666C7.95277 2.66666 6.21875 3.37708 4.79791 4.79791C3.37708 6.21875 2.66666 7.95277 2.66666 10C2.66666 12.0472 3.37708 13.7812 4.79791 15.2021C6.21875 16.6229 7.95277 17.3333 10 17.3333Z" fill="#6391FF"/>
</svg>
