<?xml version="1.0" encoding="UTF-8"?>
<svg id="Capa_1" data-name="Capa 1" xmlns="http://www.w3.org/2000/svg" version="1.1" viewBox="0 0 800 800">
  <defs>
    <style>
      .cls-1 {
        fill: #fff;
        stroke-width: 0px;
      }
    </style>
  </defs>
  <path class="cls-1" d="M400,0C179.4,0,0,179.4,0,400s179.4,400,400,400,400-179.4,400-400c0-220.6-179.4-400-400-400ZM400,745.2c-190.4,0-345.2-154.9-345.2-345.2,0-190.4,154.9-345.2,345.2-345.2s345.2,154.9,345.2,345.2c0,190.4-154.9,345.2-345.2,345.2Z"/>
  <path class="cls-1" d="M606.4,394.7h-190v-207.6c0-15.1-12.3-27.4-27.4-27.4s-27.4,12.3-27.4,27.4v235c0,15.1,12.3,27.4,27.4,27.4h217.4c15.1,0,27.4-12.3,27.4-27.4s-12.3-27.4-27.4-27.4Z"/>
</svg>