<svg width="430" height="46" viewBox="0 0 430 46" fill="none" xmlns="http://www.w3.org/2000/svg">
<path d="M39.0742 27.6846C37.3174 27.6846 35.957 26.6318 35.6631 25.0664H37.2012C37.4336 25.873 38.1855 26.4131 39.0947 26.4131C40.6328 26.4131 41.5352 24.9912 41.5352 22.5029C41.5352 22.5029 41.5283 22.5029 41.5215 22.5029H41.5146H41.5078C41.1113 23.4736 40.0723 24.1162 38.8008 24.1162C36.9277 24.1162 35.5264 22.7285 35.5264 20.8555C35.5264 18.8799 37.0439 17.4443 39.1289 17.4443C40.5918 17.4443 41.7676 18.1895 42.4033 19.5156C42.8066 20.3018 43.0117 21.2725 43.0117 22.4277C43.0117 25.7295 41.5488 27.6846 39.0742 27.6846ZM39.1289 22.8652C40.3389 22.8652 41.2412 21.9971 41.2412 20.835C41.2412 19.666 40.3252 18.75 39.1494 18.75C37.9736 18.75 37.0508 19.6592 37.0508 20.8076C37.0508 21.9902 37.9326 22.8652 39.1289 22.8652Z" fill="white"/>
<path d="M45.8389 27.5752C45.3398 27.5752 44.9434 27.1787 44.9434 26.6797C44.9434 26.1807 45.3398 25.7842 45.8389 25.7842C46.3379 25.7842 46.7344 26.1807 46.7344 26.6797C46.7344 27.1787 46.3379 27.5752 45.8389 27.5752ZM45.8389 22.5918C45.3398 22.5918 44.9434 22.2021 44.9434 21.6963C44.9434 21.1973 45.3398 20.8008 45.8389 20.8008C46.3379 20.8008 46.7344 21.1973 46.7344 21.6963C46.7344 22.2021 46.3379 22.5918 45.8389 22.5918Z" fill="white"/>
<path d="M53.4551 27.5V25.5518H48.5195V24.2119C49.3672 22.6191 50.4883 20.8486 52.71 17.6357H54.9248V24.2666H56.2783V25.5518H54.9248V27.5H53.4551ZM49.9482 24.2529V24.2871H53.4688V18.8184H53.4414C51.7324 21.2861 50.7344 22.8242 49.9482 24.2529ZM59.9287 27.5V19.1533H59.8945L57.3174 20.9854V19.4814L59.915 17.6357H61.4258V27.5H59.9287Z" fill="white"/>
<path d="M337 24H336C335.448 24 335 24.4477 335 25V27C335 27.5523 335.448 28 336 28H337C337.552 28 338 27.5523 338 27V25C338 24.4477 337.552 24 337 24Z" fill="white"/>
<path d="M342 22H341C340.448 22 340 22.4477 340 23V27C340 27.5523 340.448 28 341 28H342C342.552 28 343 27.5523 343 27V23C343 22.4477 342.552 22 342 22Z" fill="white"/>
<path d="M347 20H346C345.448 20 345 20.4477 345 21V27C345 27.5523 345.448 28 346 28H347C347.552 28 348 27.5523 348 27V21C348 20.4477 347.552 20 347 20Z" fill="white"/>
<path d="M352 18H351C350.448 18 350 18.4477 350 19V27C350 27.5523 350.448 28 351 28H352C352.552 28 353 27.5523 353 27V19C353 18.4477 352.552 18 352 18Z" fill="white"/>
<g clip-path="url(#clip0_13_205)">
<path d="M369.491 28.8094C369.54 28.8128 369.59 28.8057 369.636 28.7884C369.683 28.7712 369.725 28.7443 369.76 28.7096C369.836 28.6406 371.529 26.9385 371.913 26.5995C371.962 26.5255 371.991 26.4405 371.999 26.3524C371.987 26.2551 371.939 26.1658 371.865 26.1014C371.177 25.5845 370.34 25.305 369.48 25.305C368.619 25.305 367.782 25.5845 367.094 26.1014C367.039 26.1747 367.005 26.2613 366.994 26.3524C366.988 26.3987 366.994 26.446 367.011 26.4893C367.029 26.5327 367.057 26.5706 367.094 26.5995C367.185 26.6995 369.178 28.6286 369.273 28.7096C369.368 28.7906 369.37 28.8094 369.491 28.8094Z" fill="white"/>
<path d="M364.5 23.4875C364.507 23.5759 364.546 23.6588 364.609 23.7215L365.764 25.0215C365.825 25.0793 365.906 25.1114 365.99 25.1114C366.074 25.1114 366.155 25.0793 366.216 25.0215C367.087 24.1346 368.273 23.6288 369.516 23.6145C370.757 23.6373 371.94 24.1419 372.816 25.0215C372.877 25.0778 372.957 25.109 373.04 25.109C373.122 25.109 373.202 25.0778 373.263 25.0215L374.425 23.7215C374.476 23.6539 374.506 23.5723 374.51 23.4875C374.515 23.4436 374.51 23.3993 374.495 23.3577C374.48 23.3161 374.456 23.2785 374.425 23.2475C373.799 22.5732 373.04 22.0354 372.196 21.6676C371.353 21.2999 370.442 21.11 369.522 21.11C368.602 21.11 367.691 21.2999 366.848 21.6676C366.004 22.0354 365.245 22.5732 364.619 23.2475C364.537 23.3645 364.5 23.3545 364.5 23.4875Z" fill="white"/>
<path d="M361.597 20.3935C361.534 20.4935 361.497 20.5175 361.497 20.6395C361.506 20.7282 361.541 20.8123 361.597 20.8814C361.597 20.8814 362.564 21.9255 362.811 22.1065C362.878 22.1578 362.96 22.1855 363.044 22.1855C363.128 22.1855 363.21 22.1578 363.277 22.1065C364.952 20.4944 367.187 19.5937 369.512 19.5937C371.837 19.5937 374.072 20.4944 375.747 22.1065C375.747 22.1065 376.009 22.2965 376.197 22.1065C376.385 21.9165 377.397 20.8814 377.397 20.8814C377.454 20.8126 377.489 20.7284 377.497 20.6395C377.502 20.5935 377.495 20.547 377.477 20.5041C377.46 20.4613 377.432 20.4233 377.397 20.3935C375.28 18.3401 372.446 17.1917 369.497 17.1917C366.548 17.1917 363.714 18.3401 361.597 20.3935Z" fill="white"/>
</g>
<g clip-path="url(#clip1_13_205)">
<path opacity="0.4" d="M388.864 17.5C388.216 17.516 387.601 17.7881 387.154 18.2567C386.706 18.7253 386.463 19.3522 386.477 20V26C386.463 26.6476 386.706 27.2743 387.154 27.7429C387.601 28.2115 388.215 28.4837 388.863 28.5H404.136C404.784 28.484 405.399 28.2119 405.846 27.7433C406.294 27.2747 406.537 26.6478 406.523 26V20C406.537 19.3522 406.294 18.7253 405.846 18.2567C405.399 17.7881 404.784 17.516 404.136 17.5H388.864ZM388.864 17H404.136C404.914 17.0184 405.652 17.3447 406.189 17.9072C406.726 18.4697 407.018 19.2225 407 20V26C407.018 26.7775 406.726 27.5303 406.189 28.0928C405.652 28.6553 404.914 28.9816 404.136 29H388.864C388.086 28.9816 387.348 28.6553 386.811 28.0928C386.274 27.5303 385.982 26.7775 386 26V20C385.982 19.2225 386.274 18.4697 386.811 17.9072C387.348 17.3447 388.086 17.0184 388.864 17V17Z" fill="white"/>
<rect x="388" y="19" width="17" height="8" rx="1" fill="white"/>
<path opacity="0.4" d="M408 21C408.53 21 409.039 21.2107 409.414 21.5858C409.789 21.9609 410 22.4696 410 23C410 23.5304 409.789 24.0391 409.414 24.4142C409.039 24.7893 408.53 25 408 25V21Z" fill="white"/>
</g>
<defs>
<clipPath id="clip0_13_205">
<rect width="16" height="11.619" fill="white" transform="translate(361.5 17.1905)"/>
</clipPath>
<clipPath id="clip1_13_205">
<rect width="24" height="12" fill="white" transform="translate(386 17)"/>
</clipPath>
</defs>
</svg>
